<svg width="36" height="37" viewBox="0 0 36 37" fill="none" xmlns="http://www.w3.org/2000/svg">
<g clip-path="url(#clip0_1003_45)">
<path d="M33.6352 14.9348C34.4608 12.4487 34.175 9.72751 32.8511 7.46717C30.8604 4.00202 26.8593 2.21957 22.9518 3.05712C20.7498 0.607705 17.4087 -0.481498 14.1861 0.19951C10.9636 0.880518 8.34877 3.22836 7.32599 6.35926C4.75926 6.88563 2.54393 8.49273 1.24688 10.7693C-0.765491 14.2289 -0.308734 18.5928 2.37637 21.5606C1.54773 24.0456 1.8309 26.7671 3.15335 29.0282C5.14653 32.4945 9.15019 34.2769 13.0598 33.4383C14.7988 35.3965 17.297 36.5106 19.9159 36.496C23.9211 36.4995 27.4694 33.9139 28.6928 30.1002C31.2592 29.5729 33.4742 27.9661 34.7719 25.6901C36.76 22.2367 36.3013 17.8963 33.6352 14.9348ZM19.9159 34.1074C18.3172 34.1099 16.7687 33.5496 15.5418 32.5246L15.7576 32.4023L23.0238 28.2081C23.3917 27.9923 23.6186 27.5986 23.6209 27.1721V16.9276L26.6928 18.7045C26.7235 18.7202 26.7449 18.7496 26.7504 18.7837V27.2728C26.7425 31.0442 23.6872 34.0994 19.9159 34.1074ZM5.22528 27.834C4.42357 26.4496 4.13571 24.8269 4.41234 23.2513L4.62816 23.3808L11.9015 27.575C12.268 27.7901 12.7221 27.7901 13.0886 27.575L21.9734 22.4527V25.9995C21.9718 26.0367 21.9532 26.0711 21.9231 26.093L14.5634 30.3376C11.293 32.2216 7.11457 31.1014 5.22528 27.834ZM3.31162 12.0067C4.1189 10.6134 5.39314 9.55072 6.90873 9.00673V17.6398C6.90316 18.0646 7.1292 18.4588 7.49866 18.6686L16.3403 23.7693L13.2684 25.5462C13.2347 25.5641 13.1942 25.5641 13.1605 25.5462L5.81521 21.3088C2.55121 19.417 1.43181 15.2417 3.31162 11.9708V12.0067ZM28.5489 17.87L19.6785 12.7189L22.7432 10.9492C22.7769 10.9313 22.8174 10.9313 22.8511 10.9492L30.1964 15.1938C32.4889 16.5167 33.8115 19.0443 33.5913 21.6819C33.3711 24.3196 31.6478 26.593 29.1676 27.5174V18.8844C29.1547 18.4608 28.9196 18.0754 28.5489 17.87ZM31.6065 13.2729L31.3906 13.1434L24.1317 8.91321C23.763 8.69687 23.3061 8.69687 22.9374 8.91321L14.0598 14.0355V10.4887C14.0559 10.452 14.0725 10.4161 14.1029 10.3952L21.4482 6.15782C23.7464 4.83389 26.6026 4.95744 28.7779 6.47486C30.9531 7.99229 32.0554 10.6302 31.6065 13.2441V13.2729ZM12.3835 19.5606L9.3116 17.7909C9.28055 17.7721 9.25947 17.7404 9.25404 17.7045V9.23695C9.25755 6.58526 10.793 4.1744 13.1944 3.04992C15.5959 1.92544 18.4309 2.28987 20.4698 3.98517L20.254 4.10747L12.9878 8.3017C12.62 8.51748 12.393 8.91118 12.3907 9.33767L12.3835 19.5606ZM14.0526 15.9635L18.0094 13.683L21.9734 15.9635V20.5247L18.0238 22.8052L14.0598 20.5247L14.0526 15.9635Z" fill="#95999B"/>
</g>
<defs>
<clipPath id="clip0_1003_45">
<rect width="36" height="36.5625" fill="white"/>
</clipPath>
</defs>
</svg>
