<svg width="36" height="36" viewBox="0 0 36 36" fill="none" xmlns="http://www.w3.org/2000/svg">
<g clip-path="url(#clip0_1003_50)">
<path d="M17.5693 0.000294089C16.1029 0.00710761 14.7026 0.132168 13.4704 0.3502C9.84057 0.991468 9.18154 2.3337 9.18154 4.809V8.07812H17.7592V9.16783H9.18154H5.96241C3.46949 9.16783 1.28662 10.6662 0.603849 13.5167C-0.183722 16.7839 -0.218655 18.8228 0.603849 22.2343C1.21358 24.7737 2.66971 26.5831 5.16262 26.5831H8.11183V22.6642C8.11183 19.833 10.5615 17.3356 13.4704 17.3356H22.0381C24.423 17.3356 26.3269 15.3719 26.3269 12.9768V4.809C26.3269 2.4844 24.3659 0.738167 22.0381 0.3502C20.5646 0.104914 19.0357 -0.00651953 17.5693 0.000294089ZM12.9305 2.62959C13.8165 2.62959 14.5401 3.36495 14.5401 4.26914C14.5401 5.17013 13.8165 5.89871 12.9305 5.89871C12.0413 5.89871 11.321 5.17013 11.321 4.26914C11.321 3.36496 12.0413 2.62959 12.9305 2.62959Z" fill="url(#paint0_linear_1003_50)"/>
<path d="M27.3967 9.16783V12.9768C27.3967 15.9299 24.8931 18.4153 22.0382 18.4153H13.4705C11.1237 18.4153 9.18164 20.4239 9.18164 22.7742V30.942C9.18164 33.2666 11.203 34.6339 13.4705 35.3008C16.1857 36.0992 18.7894 36.2435 22.0382 35.3008C24.1976 34.6756 26.327 33.4173 26.327 30.942V27.6728H17.7593V26.5831H26.327H30.6159C33.1088 26.5831 34.0377 24.8443 34.9047 22.2343C35.8003 19.5474 35.7621 16.9635 34.9047 13.5167C34.2886 11.0349 33.112 9.16783 30.6159 9.16783H27.3967ZM22.578 29.8523C23.4672 29.8523 24.1876 30.5808 24.1876 31.4818C24.1876 32.386 23.4672 33.1214 22.578 33.1214C21.692 33.1214 20.9685 32.386 20.9685 31.4818C20.9685 30.5808 21.692 29.8523 22.578 29.8523Z" fill="url(#paint1_linear_1003_50)"/>
</g>
<defs>
<linearGradient id="paint0_linear_1003_50" x1="-1.06814e-07" y1="-9.27866e-08" x2="19.7792" y2="16.8546" gradientUnits="userSpaceOnUse">
<stop stop-color="#7B8384"/>
<stop offset="1" stop-color="#959A9B"/>
</linearGradient>
<linearGradient id="paint1_linear_1003_50" x1="22.3719" y1="31.207" x2="15.2759" y2="21.2633" gradientUnits="userSpaceOnUse">
<stop stop-color="#D8D8D8"/>
<stop offset="1" stop-color="#EBEBEB"/>
</linearGradient>
<clipPath id="clip0_1003_50">
<rect width="36" height="36" fill="white"/>
</clipPath>
</defs>
</svg>
